<svg xmlns="http://www.w3.org/2000/svg" xmlns:xlink="http://www.w3.org/1999/xlink" width="80" zoomAndPan="magnify" viewBox="0 0 60 60" height="80" preserveAspectRatio="xMidYMid meet" version="1.0"><defs><clipPath id="a0d6044950"><path d="M 12 14 L 46 14 L 46 53.851562 L 12 53.851562 Z M 12 14 " clip-rule="nonzero"/></clipPath><clipPath id="42b6f9c493"><path d="M 34 4.351562 L 47.972656 4.351562 L 47.972656 20 L 34 20 Z M 34 4.351562 " clip-rule="nonzero"/></clipPath></defs><g clip-path="url(#a0d6044950)"><path fill="#ffffff" d="M 12.339844 14.984375 L 45.191406 14.980469 C 45.324219 14.980469 45.445312 15.058594 45.496094 15.183594 C 45.550781 15.308594 45.519531 15.449219 45.425781 15.542969 C 40.023438 20.929688 34.628906 26.308594 31.96875 29.179688 C 31.058594 30.164062 30.488281 30.835938 30.125 31.40625 C 29.476562 32.417969 29.484375 33.097656 29.523438 34.820312 L 29.527344 35.007812 C 29.589844 37.820312 29.640625 43.070312 29.691406 48.3125 L 29.660156 48.179688 C 30.101562 49.144531 30.515625 50.050781 31.480469 50.886719 C 32.460938 51.746094 34.019531 52.539062 35.632812 53.359375 C 35.769531 53.429688 35.84375 53.585938 35.804688 53.734375 C 35.769531 53.882812 35.636719 53.988281 35.484375 53.988281 L 21.199219 53.988281 C 21.046875 53.988281 20.914062 53.882812 20.878906 53.734375 C 20.84375 53.585938 20.914062 53.429688 21.046875 53.359375 C 22.972656 52.363281 24.820312 51.402344 25.722656 50.558594 C 25.933594 50.363281 26.085938 50.175781 26.199219 50 C 26.546875 49.457031 26.542969 48.960938 26.53125 48.367188 C 26.53125 48.359375 26.53125 48.347656 26.53125 48.339844 C 26.917969 42.828125 27.300781 37.378906 26.832031 34.007812 C 26.371094 30.703125 25.097656 29.4375 23.785156 28.132812 C 23.78125 28.128906 23.777344 28.125 23.773438 28.125 L 12.09375 15.539062 C 12.003906 15.445312 11.980469 15.304688 12.035156 15.183594 C 12.085938 15.0625 12.207031 14.984375 12.339844 14.984375 M 12.339844 15.648438 L 12.582031 15.089844 L 24.261719 27.671875 L 24.25 27.664062 C 25.605469 29.011719 27 30.402344 27.488281 33.917969 C 27.96875 37.371094 27.578125 42.910156 27.191406 48.382812 L 27.191406 48.355469 C 27.203125 48.945312 27.222656 49.628906 26.757812 50.355469 C 26.613281 50.585938 26.421875 50.8125 26.175781 51.042969 C 25.191406 51.964844 23.234375 52.972656 21.351562 53.949219 L 21.199219 53.324219 L 35.484375 53.324219 L 35.335938 53.953125 C 33.746094 53.144531 32.101562 52.308594 31.042969 51.386719 C 29.964844 50.445312 29.5 49.417969 29.058594 48.453125 C 29.039062 48.410156 29.027344 48.363281 29.027344 48.320312 C 28.976562 43.074219 28.925781 37.828125 28.867188 35.023438 L 28.859375 34.832031 C 28.824219 33.125 28.796875 32.25 29.566406 31.046875 C 29.964844 30.425781 30.574219 29.714844 31.484375 28.730469 C 34.152344 25.847656 39.558594 20.457031 44.957031 15.074219 L 45.191406 15.640625 Z M 12.339844 15.648438 " fill-opacity="1" fill-rule="nonzero"/></g><g clip-path="url(#42b6f9c493)"><path fill="#ffffff" d="M 47.660156 5.140625 L 43.558594 5.015625 L 43.855469 4.855469 L 35.453125 18.972656 C 35.359375 19.128906 35.15625 19.179688 35 19.085938 C 34.84375 18.992188 34.789062 18.789062 34.882812 18.632812 L 43.285156 4.515625 C 43.34375 4.410156 43.457031 4.347656 43.578125 4.351562 L 47.679688 4.476562 C 47.863281 4.480469 48.003906 4.632812 48 4.816406 C 47.996094 5 47.839844 5.144531 47.660156 5.140625 Z M 47.660156 5.140625 " fill-opacity="1" fill-rule="nonzero"/></g><path fill="#ffffff" d="M 43.085938 10.972656 L 42.90625 11.3125 C 42.484375 11.96875 41.90625 12.386719 41.179688 12.570312 C 40.445312 12.753906 39.730469 12.640625 39.027344 12.234375 C 38.371094 11.8125 37.949219 11.234375 37.765625 10.507812 C 37.707031 10.273438 37.679688 10.03125 37.683594 9.785156 L 37.714844 9.417969 C 37.75 9.175781 37.820312 8.933594 37.925781 8.691406 C 38.265625 7.96875 38.785156 7.472656 39.488281 7.203125 C 40.1875 6.933594 40.90625 6.949219 41.644531 7.253906 C 42.367188 7.59375 42.863281 8.113281 43.136719 8.8125 C 43.40625 9.515625 43.390625 10.234375 43.085938 10.972656 " fill-opacity="1" fill-rule="nonzero"/><path fill="#ffffff" d="M 43.421875 17.160156 L 28.949219 17.226562 L 14.476562 17.289062 L 28.144531 32.71875 L 43.421875 17.160156 " fill-opacity="1" fill-rule="nonzero"/></svg>