<svg xmlns="http://www.w3.org/2000/svg" xmlns:xlink="http://www.w3.org/1999/xlink" width="80" zoomAndPan="magnify" viewBox="0 0 60 60" height="80" preserveAspectRatio="xMidYMid meet" version="1.0"><defs><clipPath id="6c4bb8ca52"><path d="M 2.175781 1.875 L 57.824219 1.875 L 57.824219 58.175781 L 2.175781 58.175781 Z M 2.175781 1.875 " clip-rule="nonzero"/></clipPath><clipPath id="0af83cf89b"><path d="M 11.175781 1.875 L 48.824219 1.875 C 51.210938 1.875 53.5 2.824219 55.1875 4.511719 C 56.875 6.199219 57.824219 8.488281 57.824219 10.875 L 57.824219 49.125 C 57.824219 54.09375 53.796875 58.125 48.824219 58.125 L 11.175781 58.125 C 6.203125 58.125 2.175781 54.09375 2.175781 49.125 L 2.175781 10.875 C 2.175781 5.90625 6.203125 1.875 11.175781 1.875 Z M 11.175781 1.875 " clip-rule="nonzero"/></clipPath><clipPath id="6dc24c83d0"><path d="M 0.175781 0.875 L 55.824219 0.875 L 55.824219 57.175781 L 0.175781 57.175781 Z M 0.175781 0.875 " clip-rule="nonzero"/></clipPath><clipPath id="55a776fbd8"><path d="M 9.175781 0.875 L 46.824219 0.875 C 49.210938 0.875 51.5 1.824219 53.1875 3.511719 C 54.875 5.199219 55.824219 7.488281 55.824219 9.875 L 55.824219 48.125 C 55.824219 53.09375 51.796875 57.125 46.824219 57.125 L 9.175781 57.125 C 4.203125 57.125 0.175781 53.09375 0.175781 48.125 L 0.175781 9.875 C 0.175781 4.90625 4.203125 0.875 9.175781 0.875 Z M 9.175781 0.875 " clip-rule="nonzero"/></clipPath><clipPath id="2240006f8e"><rect x="0" width="56" y="0" height="58"/></clipPath><clipPath id="16edeccb1a"><path d="M 12.484375 16 L 46 16 L 46 54 L 12.484375 54 Z M 12.484375 16 " clip-rule="nonzero"/></clipPath><clipPath id="18d38f3e6c"><path d="M 34 6 L 47.734375 6 L 47.734375 21 L 34 21 Z M 34 6 " clip-rule="nonzero"/></clipPath></defs><g clip-path="url(#6c4bb8ca52)"><g clip-path="url(#0af83cf89b)"><g transform="matrix(1, 0, 0, 1, 2, 1)"><g clip-path="url(#2240006f8e)"><g clip-path="url(#6dc24c83d0)"><g clip-path="url(#55a776fbd8)"><path fill="#ffffff" d="M 0.175781 0.875 L 55.824219 0.875 L 55.824219 57.175781 L 0.175781 57.175781 Z M 0.175781 0.875 " fill-opacity="1" fill-rule="nonzero"/></g></g></g></g></g></g><g clip-path="url(#16edeccb1a)"><path fill="#000000" d="M 12.851562 16.28125 L 44.96875 16.277344 C 45.097656 16.277344 45.21875 16.355469 45.265625 16.476562 C 45.316406 16.59375 45.289062 16.734375 45.195312 16.824219 C 39.914062 22.03125 34.640625 27.234375 32.042969 30.011719 C 31.152344 30.960938 30.59375 31.609375 30.238281 32.160156 C 29.605469 33.140625 29.613281 33.796875 29.652344 35.460938 L 29.65625 35.644531 C 29.714844 38.363281 29.765625 43.4375 29.816406 48.507812 L 29.785156 48.378906 C 30.214844 49.3125 30.621094 50.1875 31.5625 51 C 32.523438 51.828125 34.046875 52.597656 35.625 53.390625 C 35.757812 53.457031 35.828125 53.605469 35.792969 53.75 C 35.757812 53.894531 35.628906 53.996094 35.476562 53.996094 L 21.515625 53.996094 C 21.363281 53.996094 21.234375 53.894531 21.199219 53.75 C 21.164062 53.609375 21.234375 53.457031 21.367188 53.390625 C 23.246094 52.425781 25.054688 51.496094 25.933594 50.679688 C 26.140625 50.492188 26.289062 50.3125 26.402344 50.140625 C 26.738281 49.617188 26.734375 49.136719 26.722656 48.5625 C 26.722656 48.554688 26.722656 48.542969 26.726562 48.535156 C 27.105469 43.207031 27.476562 37.933594 27.019531 34.679688 C 26.570312 31.480469 25.324219 30.257812 24.039062 28.996094 C 24.035156 28.992188 24.035156 28.992188 24.03125 28.988281 L 12.613281 16.820312 C 12.523438 16.726562 12.5 16.589844 12.554688 16.472656 C 12.605469 16.359375 12.722656 16.28125 12.851562 16.28125 M 12.851562 16.921875 L 13.085938 16.382812 L 24.503906 28.550781 L 24.496094 28.542969 C 25.820312 29.847656 27.183594 31.191406 27.660156 34.589844 C 28.128906 37.929688 27.746094 43.285156 27.371094 48.578125 L 27.371094 48.550781 C 27.382812 49.121094 27.402344 49.78125 26.945312 50.484375 C 26.804688 50.707031 26.617188 50.925781 26.378906 51.148438 C 25.414062 52.039062 23.503906 53.015625 21.664062 53.960938 L 21.515625 53.355469 L 35.476562 53.355469 L 35.332031 53.960938 C 33.777344 53.179688 32.171875 52.375 31.136719 51.480469 C 30.082031 50.570312 29.625 49.578125 29.195312 48.644531 C 29.175781 48.605469 29.167969 48.558594 29.167969 48.515625 C 29.117188 43.441406 29.066406 38.371094 29.007812 35.660156 L 29.003906 35.476562 C 28.964844 33.824219 28.941406 32.976562 29.691406 31.816406 C 30.082031 31.210938 30.675781 30.523438 31.566406 29.574219 C 34.175781 26.785156 39.460938 21.574219 44.738281 16.371094 L 44.96875 16.917969 Z M 12.851562 16.921875 " fill-opacity="1" fill-rule="nonzero"/></g><g clip-path="url(#18d38f3e6c)"><path fill="#000000" d="M 47.378906 6.761719 L 43.371094 6.644531 L 43.660156 6.488281 L 35.449219 20.136719 C 35.355469 20.289062 35.15625 20.339844 35.003906 20.25 C 34.851562 20.160156 34.800781 19.960938 34.890625 19.8125 L 43.101562 6.160156 C 43.164062 6.058594 43.273438 6 43.390625 6.003906 L 47.398438 6.121094 C 47.578125 6.128906 47.71875 6.273438 47.714844 6.453125 C 47.707031 6.628906 47.558594 6.769531 47.378906 6.761719 Z M 47.378906 6.761719 " fill-opacity="1" fill-rule="nonzero"/></g><path fill="#000000" d="M 42.910156 12.402344 L 42.734375 12.730469 C 42.320312 13.367188 41.757812 13.773438 41.046875 13.949219 C 40.328125 14.125 39.628906 14.015625 38.941406 13.625 C 38.296875 13.214844 37.886719 12.65625 37.707031 11.953125 C 37.652344 11.726562 37.625 11.492188 37.628906 11.257812 L 37.65625 10.902344 C 37.691406 10.664062 37.761719 10.429688 37.863281 10.199219 C 38.199219 9.5 38.707031 9.019531 39.390625 8.757812 C 40.074219 8.496094 40.777344 8.511719 41.5 8.804688 C 42.207031 9.136719 42.691406 9.640625 42.957031 10.316406 C 43.222656 10.992188 43.207031 11.6875 42.910156 12.402344 " fill-opacity="1" fill-rule="nonzero"/><path fill="#000000" d="M 43.238281 18.386719 L 29.089844 18.449219 L 14.9375 18.511719 L 28.304688 33.433594 L 43.238281 18.386719 " fill-opacity="1" fill-rule="nonzero"/></svg>